<svg xmlns="http://www.w3.org/2000/svg" width="366" height="432" viewBox="0 0 70 53" fill="none">
    <path d="M16 40.9955L30 47L19.7857 39.8086C23.2887 29.3759 25.2362 23.565 27.5 16L23.3571 19.0023C19.8605 27.3315 18.5406 32.2681 16 40.9955Z"
          fill="#DDEDFF"/>
    <path d="M56 41.0347L42 47C45.6237 43.9699 47.8475 42.3971 52.2143 39.8555C48.7113 29.4909 50.7857 35.6936 48.2857 28.2717L51.1429 23C53.0714 32.2254 53.4594 32.3643 56 41.0347Z"
          fill="#DDEDFF"/>
    <path d="M8 44.814C16.948 45.3074 21.5079 46.282 29 49C23.0929 45.5171 19.4554 43.9594 11.8119 42.5814C15.7624 30.7784 18.1567 23.7198 19.2277 19C13.7579 20.5648 11.7443 29.7074 8 44.814Z"
          fill="#72B1F6"/>
    <path d="M63 44.814C54.052 45.3074 49.4921 46.282 42 49C47.9071 45.5171 51.5446 43.9594 59.1881 42.5814C55.2376 30.7784 52.8433 23.7198 51.7723 19C57.2421 20.5648 59.2557 29.7074 63 44.814Z"
          fill="#72B1F6"/>
    <path d="M0 51.2816C1.75562 44.5329 2.98039 38.8139 4.40552 33.8395C5.61009 29.635 7.8473 25.7572 11.2424 23C9.25345 31.4796 7.51652 37.121 4.59084 46.7349C4.49025 47.0655 4.74949 47.3983 5.09472 47.3841C15.1004 46.9738 20.4877 47.9909 29.1672 51.3992C29.3204 51.4593 29.4963 51.4411 29.633 51.3496C32.2286 49.6104 33.624 48.7791 35.1485 48.3949C35.2832 48.3609 35.4244 48.3589 35.5597 48.3904C37.1809 48.7683 38.4588 49.7633 40.494 51.3481L40.6299 51.4539C40.7765 51.568 40.9764 51.5905 41.1458 51.5141C48.2274 48.3213 53.2328 47.1094 65.1967 47.4645C65.5389 47.4747 65.7958 47.1447 65.6969 46.817C62.9236 37.6316 61.2299 32.2578 58.8283 23C61.1062 24.4402 62.3096 25.3223 63.7778 27.5823C64.9174 29.9042 66.6495 37.0803 70 51.2816C57.9707 49.9251 51.4677 50.2538 40.5655 52.9352C40.4031 52.9751 40.2286 52.9319 40.1048 52.8194C38.0163 50.9223 36.9181 50.1043 35.6409 49.6569C35.4549 49.5917 35.252 49.5927 35.0648 49.6541C33.1982 50.2662 32.0299 51.1511 30.1077 52.8265C29.9833 52.9349 29.8108 52.9747 29.6509 52.9339C18.3375 50.0468 11.8016 49.6529 0 51.2816Z"
          fill="#002B5B"/>
    <path d="M25 42C36.7019 32.6309 50.9963 31.7287 49.9453 20C43.0783 31.3917 31.937 30.6183 25 42Z" fill="#FEB700"/>
    <path d="M25 41C33.9754 27.4177 51.7002 25.6773 47.3135 4C46.7382 25.5352 27.1574 26.0746 25 41Z" fill="#72B1F6"/>
    <path d="M42 8L42.2701 8.72991L43 9L42.2701 9.27009L42 10L41.7299 9.27009L41 9L41.7299 8.72991L42 8Z"
          fill="#FEB700"/>
    <path d="M46.0565 1.06474L47.1131 1.55434L48.1696 1.06474L47.6838 2.12952L48.1696 3.1943L47.1131 2.70469L46.0565 3.1943L46.5423 2.12952L46.0565 1.06474Z"
          fill="#FEB700"/>
    <path d="M51.5 11L51.9051 12.0949L53 12.5L51.9051 12.9051L51.5 14L51.0949 12.9051L50 12.5L51.0949 12.0949L51.5 11Z"
          fill="#FEB700"/>
    <ellipse cx="34.5" cy="16.5" rx="3.5" ry="4.5" fill="#FEB700"/>
</svg>