<?xml version="1.0" standalone="no"?>
<!DOCTYPE svg PUBLIC "-//W3C//DTD SVG 20010904//EN"
        "http://www.w3.org/TR/2001/REC-SVG-20010904/DTD/svg10.dtd">
<svg version="1.0" xmlns="http://www.w3.org/2000/svg"
     width="920.000000pt" height="920.000000pt" viewBox="0 0 920.000000 920.000000"
     preserveAspectRatio="xMidYMid meet">

    <g transform="translate(0.000000,920.000000) scale(0.100000,-0.100000)"
       fill="#54d172" stroke="none">
        <path d="M4335 9194 c-534 -41 -982 -140 -1423 -316 -1190 -474 -2124 -1410
-2596 -2603 -194 -493 -298 -1005 -313 -1555 -17 -624 91 -1237 318 -1808 496
-1246 1502 -2210 2774 -2660 535 -189 1213 -282 1785 -243 511 35 960 134
1408 312 870 346 1620 953 2139 1729 351 527 601 1151 703 1756 42 246 60 428
67 684 17 615 -92 1230 -319 1799 -416 1045 -1193 1898 -2198 2413 -257 131
-514 233 -787 312 -300 86 -505 127 -823 162 -127 14 -626 26 -735 18z m-300
-2667 c54 -25 143 -111 905 -878 574 -578 855 -867 875 -902 28 -48 30 -60 30
-147 0 -80 -4 -103 -24 -144 -18 -37 -150 -173 -560 -580 -295 -292 -679 -672
-854 -846 -177 -176 -338 -327 -363 -342 -63 -36 -154 -52 -223 -39 -159 31
-265 159 -266 321 0 129 26 167 267 405 112 110 437 431 722 714 l519 513
-725 726 c-689 690 -727 730 -747 785 -51 140 -8 297 105 384 91 69 228 81
339 30z"/>
    </g>
</svg>
